<svg height="1198" width="720" xmlns="http://www.w3.org/2000/svg">
<rect height="1198" fill="#555" width="720"></rect>
<text fill="#7f7" font-family="Courier New" font-size="12" xml:space="preserve">
<tspan x="10" y="26">6 megabytes installed</tspan>
<tspan x="10" y="42"></tspan>
<tspan x="10" y="58">node_modules</tspan>
<tspan x="10" y="74">└─┬ node-libs-browser@2.0.0 </tspan>
<tspan x="10" y="90">  ├── assert@1.4.1 </tspan>
<tspan x="10" y="106">  ├─┬ browserify-zlib@0.1.4 </tspan>
<tspan x="10" y="122">  │ └── pako@0.2.9 </tspan>
<tspan x="10" y="138">  ├─┬ buffer@4.9.1 </tspan>
<tspan x="10" y="154">  │ ├── base64-js@1.2.0 </tspan>
<tspan x="10" y="170">  │ ├── ieee754@1.1.8 </tspan>
<tspan x="10" y="186">  │ └── isarray@1.0.0 </tspan>
<tspan x="10" y="202">  ├─┬ console-browserify@1.1.0 </tspan>
<tspan x="10" y="218">  │ └── date-now@0.1.4 </tspan>
<tspan x="10" y="234">  ├── constants-browserify@1.0.0 </tspan>
<tspan x="10" y="250">  ├─┬ crypto-browserify@3.11.0 </tspan>
<tspan x="10" y="266">  │ ├─┬ browserify-cipher@1.0.0 </tspan>
<tspan x="10" y="282">  │ │ ├─┬ browserify-aes@1.0.6 </tspan>
<tspan x="10" y="298">  │ │ │ └── buffer-xor@1.0.3 </tspan>
<tspan x="10" y="314">  │ │ ├─┬ browserify-des@1.0.0 </tspan>
<tspan x="10" y="330">  │ │ │ └── des.js@1.0.0 </tspan>
<tspan x="10" y="346">  │ │ └── evp_bytestokey@1.0.0 </tspan>
<tspan x="10" y="362">  │ ├─┬ browserify-sign@4.0.4 </tspan>
<tspan x="10" y="378">  │ │ ├── bn.js@4.11.6 </tspan>
<tspan x="10" y="394">  │ │ ├── browserify-rsa@4.0.1 </tspan>
<tspan x="10" y="410">  │ │ ├─┬ elliptic@6.4.0 </tspan>
<tspan x="10" y="426">  │ │ │ ├── brorand@1.1.0 </tspan>
<tspan x="10" y="442">  │ │ │ ├── hash.js@1.0.3 </tspan>
<tspan x="10" y="458">  │ │ │ ├── hmac-drbg@1.0.1 </tspan>
<tspan x="10" y="474">  │ │ │ ├── minimalistic-assert@1.0.0 </tspan>
<tspan x="10" y="490">  │ │ │ └── minimalistic-crypto-utils@1.0.1 </tspan>
<tspan x="10" y="506">  │ │ └─┬ parse-asn1@5.1.0 </tspan>
<tspan x="10" y="522">  │ │   └── asn1.js@4.9.1 </tspan>
<tspan x="10" y="538">  │ ├── create-ecdh@4.0.0 </tspan>
<tspan x="10" y="554">  │ ├─┬ create-hash@1.1.2 </tspan>
<tspan x="10" y="570">  │ │ ├── cipher-base@1.0.3 </tspan>
<tspan x="10" y="586">  │ │ ├── ripemd160@1.0.1 </tspan>
<tspan x="10" y="602">  │ │ └── sha.js@2.4.8 </tspan>
<tspan x="10" y="618">  │ ├── create-hmac@1.1.4 </tspan>
<tspan x="10" y="634">  │ ├─┬ diffie-hellman@5.0.2 </tspan>
<tspan x="10" y="650">  │ │ └── miller-rabin@4.0.0 </tspan>
<tspan x="10" y="666">  │ ├── inherits@2.0.1 </tspan>
<tspan x="10" y="682">  │ ├── pbkdf2@3.0.9 </tspan>
<tspan x="10" y="698">  │ ├── public-encrypt@4.0.0 </tspan>
<tspan x="10" y="714">  │ └── randombytes@2.0.3 </tspan>
<tspan x="10" y="730">  ├── domain-browser@1.1.7 </tspan>
<tspan x="10" y="746">  ├── events@1.1.1 </tspan>
<tspan x="10" y="762">  ├── https-browserify@0.0.1 </tspan>
<tspan x="10" y="778">  ├── os-browserify@0.2.1 </tspan>
<tspan x="10" y="794">  ├── path-browserify@0.0.0 </tspan>
<tspan x="10" y="810">  ├── process@0.11.9 </tspan>
<tspan x="10" y="826">  ├── punycode@1.4.1 </tspan>
<tspan x="10" y="842">  ├── querystring-es3@0.2.1 </tspan>
<tspan x="10" y="858">  ├─┬ readable-stream@2.2.9 </tspan>
<tspan x="10" y="874">  │ ├── buffer-shims@1.0.0 </tspan>
<tspan x="10" y="890">  │ ├── core-util-is@1.0.2 </tspan>
<tspan x="10" y="906">  │ ├── process-nextick-args@1.0.7 </tspan>
<tspan x="10" y="922">  │ ├── string_decoder@1.0.0 </tspan>
<tspan x="10" y="938">  │ └── util-deprecate@1.0.2 </tspan>
<tspan x="10" y="954">  ├── stream-browserify@2.0.1 </tspan>
<tspan x="10" y="970">  ├─┬ stream-http@2.7.0 </tspan>
<tspan x="10" y="986">  │ ├── builtin-status-codes@3.0.0 </tspan>
<tspan x="10" y="1002">  │ ├── to-arraybuffer@1.0.1 </tspan>
<tspan x="10" y="1018">  │ └── xtend@4.0.1 </tspan>
<tspan x="10" y="1034">  ├── string_decoder@0.10.31 </tspan>
<tspan x="10" y="1050">  ├─┬ timers-browserify@2.0.2 </tspan>
<tspan x="10" y="1066">  │ └── setimmediate@1.0.5 </tspan>
<tspan x="10" y="1082">  ├── tty-browserify@0.0.0 </tspan>
<tspan x="10" y="1098">  ├─┬ url@0.11.0 </tspan>
<tspan x="10" y="1114">  │ ├── punycode@1.3.2 </tspan>
<tspan x="10" y="1130">  │ └── querystring@0.2.0 </tspan>
<tspan x="10" y="1146">  ├── util@0.10.3 </tspan>
<tspan x="10" y="1162">  └─┬ vm-browserify@0.0.4 </tspan>
<tspan x="10" y="1178">    └── indexof@0.0.1</tspan>
</text>
</svg>
